HIERARCHY
ROOT Hips
{
  OFFSET -1.373 28.773 -294.138
  CHANNELS 6 Xposition Yposition Zposition Zrotation Xrotation Yrotation
  JOINT LeftUpLeg
  {
    OFFSET 8.938 -6.944 3.570
    CHANNELS 6 Xposition Yposition Zposition Zrotation Xrotation Yrotation
    JOINT LeftLeg
    {
      OFFSET 0.000 -43.929 0.000
      CHANNELS 6 Xposition Yposition Zposition Zrotation Xrotation Yrotation
      JOINT LeftFoot
      {
        OFFSET -0.000 -36.144 -0.000
        CHANNELS 6 Xposition Yposition Zposition Zrotation Xrotation Yrotation
        End Site
        {
          OFFSET 0.000 -10.245 5.915
        }
      }
    }
  }
  JOINT RightUpLeg
  {
    OFFSET -8.873 -6.821 4.057
    CHANNELS 6 Xposition Yposition Zposition Zrotation Xrotation Yrotation
    JOINT RightLeg
    {
      OFFSET 0.000 -43.931 0.000
      CHANNELS 6 Xposition Yposition Zposition Zrotation Xrotation Yrotation
      JOINT RightFoot
      {
        OFFSET 0.000 -35.655 -0.000
        CHANNELS 6 Xposition Yposition Zposition Zrotation Xrotation Yrotation
        End Site
        {
          OFFSET 0.000 -9.208 5.316
        }
      }
    }
  }
  JOINT Spine
  {
    OFFSET 0.000 4.554 -4.554
    CHANNELS 6 Xposition Yposition Zposition Zrotation Xrotation Yrotation
    JOINT LeftShoulder
    {
      OFFSET -0.000 47.933 0.000
      CHANNELS 6 Xposition Yposition Zposition Zrotation Xrotation Yrotation
      JOINT LeftArm
      {
        OFFSET 30.380 0.000 -0.000
        CHANNELS 6 Xposition Yposition Zposition Zrotation Xrotation Yrotation
        JOINT LeftForeArm
        {
          OFFSET 25.108 0.000 0.000
          CHANNELS 6 Xposition Yposition Zposition Zrotation Xrotation Yrotation
          JOINT LeftHand
          {
            OFFSET 24.215 -0.000 -0.000
            CHANNELS 6 Xposition Yposition Zposition Zrotation Xrotation Yrotation
            JOINT LeftHandThumb1
            {
            OFFSET 4.970 -0.620 3.390
            CHANNELS 6 Xposition Yposition Zposition Zrotation Xrotation Yrotation
              JOINT LeftHandThumb2
              {
              OFFSET 2.150 -0.000 0.000
              CHANNELS 6 Xposition Yposition Zposition Zrotation Xrotation Yrotation
                JOINT LeftHandThumb3
                {
                OFFSET 2.200 -0.000 0.000
                CHANNELS 6 Xposition Yposition Zposition Zrotation Xrotation Yrotation
                  JOINT LeftHandThumb4
                  {
                  OFFSET 1.700 -0.000 0.000
                  CHANNELS 6 Xposition Yposition Zposition Zrotation Xrotation Yrotation
                  }
                }
              }
            }
            JOINT LeftHandIndex1
            {
            OFFSET 8.730 0.680 2.070
            CHANNELS 6 Xposition Yposition Zposition Zrotation Xrotation Yrotation
              JOINT LeftHandIndex2
              {
              OFFSET 2.670 -0.000 0.000
              CHANNELS 6 Xposition Yposition Zposition Zrotation Xrotation Yrotation
                JOINT LeftHandIndex3
                {
                OFFSET 2.130 -0.000 0.000
                CHANNELS 6 Xposition Yposition Zposition Zrotation Xrotation Yrotation
                  JOINT LeftHandIndex4
                  {
                  OFFSET 1.800 -0.000 0.000
                  CHANNELS 6 Xposition Yposition Zposition Zrotation Xrotation Yrotation
                  }
                }
              }
            }
            JOINT LeftHandMiddle1
            {
            OFFSET 9.220 0.670 0.550
            CHANNELS 6 Xposition Yposition Zposition Zrotation Xrotation Yrotation
              JOINT LeftHandMiddle2
              {
              OFFSET 2.660 -0.000 0.000
              CHANNELS 6 Xposition Yposition Zposition Zrotation Xrotation Yrotation
                JOINT LeftHandMiddle3
                {
                OFFSET 2.280 -0.000 0.000
                CHANNELS 6 Xposition Yposition Zposition Zrotation Xrotation Yrotation
                  JOINT LeftHandMiddle4
                  {
                  OFFSET 1.500 -0.000 0.000
                  CHANNELS 6 Xposition Yposition Zposition Zrotation Xrotation Yrotation
                  }
                }
              }
            }
            JOINT LeftHandRing1
            {
            OFFSET 9.250 0.670 -1.130
            CHANNELS 6 Xposition Yposition Zposition Zrotation Xrotation Yrotation
              JOINT LeftHandRing2
              {
              OFFSET 2.470 -0.000 0.000
              CHANNELS 6 Xposition Yposition Zposition Zrotation Xrotation Yrotation
                JOINT LeftHandRing3
                {
                OFFSET 2.210 -0.000 0.000
                CHANNELS 6 Xposition Yposition Zposition Zrotation Xrotation Yrotation
                  JOINT LeftHandRing4
                  {
                  OFFSET 1.800 -0.000 0.000
                  CHANNELS 6 Xposition Yposition Zposition Zrotation Xrotation Yrotation
                  }
                }
              }
            }
            JOINT LeftHandPinky1
            {
            OFFSET 9.350 0.660 -2.720
            CHANNELS 6 Xposition Yposition Zposition Zrotation Xrotation Yrotation
              JOINT LeftHandPinky2
              {
              OFFSET 1.630 -0.000 0.000
              CHANNELS 6 Xposition Yposition Zposition Zrotation Xrotation Yrotation
                JOINT LeftHandPinky3
                {
                OFFSET 1.710 -0.000 0.000
                CHANNELS 6 Xposition Yposition Zposition Zrotation Xrotation Yrotation
                  JOINT LeftHandPinky4
                  {
                  OFFSET 1.800 -0.000 0.000
                  CHANNELS 6 Xposition Yposition Zposition Zrotation Xrotation Yrotation
                  }
                }
              }
            }
          }
        }
      }
    }
    JOINT RightShoulder
    {
      OFFSET -0.000 47.933 0.000
      CHANNELS 6 Xposition Yposition Zposition Zrotation Xrotation Yrotation
      JOINT RightArm
      {
        OFFSET -30.634 0.000 -0.000
        CHANNELS 6 Xposition Yposition Zposition Zrotation Xrotation Yrotation
        JOINT RightForeArm
        {
          OFFSET -25.627 0.000 0.000
          CHANNELS 6 Xposition Yposition Zposition Zrotation Xrotation Yrotation
          JOINT RightHand
          {
            OFFSET -24.471 0.000 -0.000
            CHANNELS 6 Xposition Yposition Zposition Zrotation Xrotation Yrotation
            JOINT RightHandThumb1
            {
            OFFSET -4.970 -0.620 3.390
            CHANNELS 6 Xposition Yposition Zposition Zrotation Xrotation Yrotation
              JOINT RightHandThumb2
              {
              OFFSET -2.150 0.000 0.000
              CHANNELS 6 Xposition Yposition Zposition Zrotation Xrotation Yrotation
                JOINT RightHandThumb3
                {
                OFFSET -2.200 0.000 0.000
                CHANNELS 6 Xposition Yposition Zposition Zrotation Xrotation Yrotation
                  JOINT RightHandThumb4
                  {
                  OFFSET -1.700 0.000 0.000
                  CHANNELS 6 Xposition Yposition Zposition Zrotation Xrotation Yrotation
                  }
                }
              }
            }
            JOINT RightHandIndex1
            {
            OFFSET -8.730 0.680 2.070
            CHANNELS 6 Xposition Yposition Zposition Zrotation Xrotation Yrotation
              JOINT RightHandIndex2
              {
              OFFSET -2.670 0.000 0.000
              CHANNELS 6 Xposition Yposition Zposition Zrotation Xrotation Yrotation
                JOINT RightHandIndex3
                {
                OFFSET -2.130 0.000 0.000
                CHANNELS 6 Xposition Yposition Zposition Zrotation Xrotation Yrotation
                  JOINT RightHandIndex4
                  {
                  OFFSET -1.800 0.000 0.000
                  CHANNELS 6 Xposition Yposition Zposition Zrotation Xrotation Yrotation
                  }
                }
              }
            }
            JOINT RightHandMiddle1
            {
            OFFSET -9.220 0.670 0.550
            CHANNELS 6 Xposition Yposition Zposition Zrotation Xrotation Yrotation
              JOINT RightHandMiddle2
              {
              OFFSET -2.660 0.000 0.000
              CHANNELS 6 Xposition Yposition Zposition Zrotation Xrotation Yrotation
                JOINT RightHandMiddle3
                {
                OFFSET -2.280 0.000 0.000
                CHANNELS 6 Xposition Yposition Zposition Zrotation Xrotation Yrotation
                  JOINT RightHandMiddle4
                  {
                  OFFSET -1.500 0.000 0.000
                  CHANNELS 6 Xposition Yposition Zposition Zrotation Xrotation Yrotation
                  }
                }
              }
            }
            JOINT RightHandRing1
            {
            OFFSET -9.250 0.670 -1.130
            CHANNELS 6 Xposition Yposition Zposition Zrotation Xrotation Yrotation
              JOINT RightHandRing2
              {
              OFFSET -2.470 0.000 0.000
              CHANNELS 6 Xposition Yposition Zposition Zrotation Xrotation Yrotation
                JOINT RightHandRing3
                {
                OFFSET -2.210 0.000 0.000
                CHANNELS 6 Xposition Yposition Zposition Zrotation Xrotation Yrotation
                  JOINT RightHandRing4
                  {
                  OFFSET -1.800 0.000 0.000
                  CHANNELS 6 Xposition Yposition Zposition Zrotation Xrotation Yrotation
                  }
                }
              }
            }
            JOINT RightHandPinky1
            {
            OFFSET -9.350 0.660 -2.720
            CHANNELS 6 Xposition Yposition Zposition Zrotation Xrotation Yrotation
              JOINT RightHandPinky2
              {
              OFFSET -1.630 0.000 0.000
              CHANNELS 6 Xposition Yposition Zposition Zrotation Xrotation Yrotation
                JOINT RightHandPinky3
                {
                OFFSET -1.710 0.000 0.000
                CHANNELS 6 Xposition Yposition Zposition Zrotation Xrotation Yrotation
                  JOINT RightHandPinky4
                  {
                  OFFSET -1.800 0.000 0.000
                  CHANNELS 6 Xposition Yposition Zposition Zrotation Xrotation Yrotation
                  }
                }
              }
            }
          }
        }
      }
    }
    JOINT Neck
    {
      OFFSET -0.000 47.933 0.000
      CHANNELS 6 Xposition Yposition Zposition Zrotation Xrotation Yrotation
      JOINT Head
      {
        OFFSET -0.000 6.776 -0.000
        CHANNELS 6 Xposition Yposition Zposition Zrotation Xrotation Yrotation
        End Site
        {
          OFFSET -0.000 0.027 -0.000
        }
      }
    }
  }
}
MOTION
Frames:	4
Frame Time:	0.0333333
1.24574 45.9813 -267.753 -0.336277 47.8929 -3.923 8.14059 -5.43313 5.88136 7.94602 -37.4384 5.86215 -5.21541e-06 -47.1841 2.38419e-05 -5.09731 -4.97653 -0.44334 5.58794e-07 -39.1212 0 6.33818 -15.5238 5.23972 -8.0688 -5.57981 6.35545 -3.79875 -37.5745 -1.30532 1.49012e-06 -48.369 2.38419e-05 8.18189 -8.38305 1.20084 -1.49012e-06 -38.2408 0 -0.908972 -3.17647 -0.562851 0 4.91546 -4.91548 0.349699 -45.9606 0.228245 2.98023e-06 47.9332 0 -50.1723 8.53774e-06 2.62832 28.1983 5.96046e-06 -4.76837e-05 -24.9589 21.6685 -0.64043 27.6353 5.96046e-06 0 7.39815e-07 1.70755e-06 -23.4252 25.8853 -1.19209e-05 -2.38419e-05 -4.08583 0.0126189 -6.85049 0.0062 0.0497 0.0339 0 0 0 0 0.0215 0 0 0 0 0 0.022 0 0 0 0 0 0.017 0 0 0 0 -0.0068 0.0873 0.0207 0 0 0 0 0.0267 0 0 0 0 0 0.0213 0 0 0 0 0 0.018 0 0 0 0 -0.0067 0.0922 0.0055 0 0 0 0 0.0266 0 0 0 0 0 0.0228 0 0 0 0 0 0.015 0 0 0 0 -0.0067 0.0925 -0.0113 0 0 0 0 0.0247 0 0 0 0 0 0.0221 0 0 0 0 0 0.018 0 0 0 0 -0.0066 0.0935 -0.0272 0 0 0 0 0.0163 0 0 0 0 0 0.0171 0 0 0 0 0 0.018 0 0 0 0 2.98023e-06 47.9332 0 50.4058 -9.92512e-06 -2.55185 -29.0428 1.19209e-05 0 28.8144 28.9299 -4.74291 -28.4644 1.19209e-05 -4.76837e-05 -3.23428e-06 1.70755e-06 26.4639 -25.0796 5.96046e-06 0 6.73816 -0.00229859 -5.35191 -0.0062 0.0497 0.0339 1.61149e-43 0 0 0 0.0215 0 0 -1.61149e-43 0 0 0.022 0 0 -1.61149e-43 0 0 0.017 0 0 0 0 0.0068 0.0873 0.0207 1.61149e-43 0 0 0 0.0267 0 3.20897e-43 0 0 0 0.0213 0 4.00771e-43 0 0 0 0.018 0 0 0 0 0.0067 0.0922 0.0055 1.61149e-43 0 0 0 0.0266 0 3.20897e-43 0 0 0 0.0228 0 4.00771e-43 0 0 0 0.015 0 0 0 0 0.0067 0.0925 -0.0113 1.61149e-43 0 0 0 0.0247 0 3.20897e-43 0 0 0 0.0221 0 4.00771e-43 0 0 0 0.018 0 0 0 0 0.0066 0.0935 -0.0272 1.61149e-43 0 0 0 0.0163 0 3.20897e-43 0 0 0 0.0171 0 4.00771e-43 0 0 0 0.018 0 0 0 0 2.98023e-06 47.9332 0 -175.006 80.9072 175.069 -4.47035e-06 14.4415 -1.49012e-05 1.00318e-05 -1.02453e-05 1.86763e-07 
1.02272 45.8828 -267.435 -0.0567511 46.8265 -3.85255 8.11919 -5.49039 5.82068 7.44025 -36.2527 5.4828 -1.86265e-07 -47.2942 2.38419e-05 -5.01714 -4.82026 -0.422665 -1.86265e-06 -39.0449 0 6.22229 -16.0912 5.19208 -8.05462 -5.60747 6.28076 -3.92455 -35.9195 -1.22676 2.98023e-06 -48.482 -2.38419e-05 8.08069 -9.05594 1.28018 0 -38.2806 4.76837e-05 -1.0593 -3.35351 -0.663019 1.49012e-06 4.91903 -4.9191 0.516126 -45.344 0.359476 -7.45058e-06 47.9332 -2.38419e-05 -50.2862 1.15259e-05 2.73747 28.1453 -1.19209e-05 2.38419e-05 -25.4734 21.6511 -0.701138 27.5898 5.96046e-06 -9.53674e-05 -1.51587e-06 5.12264e-06 -23.2527 25.8587 0 4.76837e-05 -4.13431 0.0105253 -6.45672 0.0062 0.0497 0.0339 0 0 0 0 0.0215 0 0 0 0 0 0.022 0 0 0 0 0 0.017 0 0 0 0 -0.0068 0.0873 0.0207 0 0 0 0 0.0267 0 0 0 0 0 0.0213 0 0 0 0 0 0.018 0 0 0 0 -0.0067 0.0922 0.0055 0 0 0 0 0.0266 0 0 0 0 0 0.0228 0 0 0 0 0 0.015 0 0 0 0 -0.0067 0.0925 -0.0113 0 0 0 0 0.0247 0 0 0 0 0 0.0221 0 0 0 0 0 0.018 0 0 0 0 -0.0066 0.0935 -0.0272 0 0 0 0 0.0163 0 0 0 0 0 0.0171 0 0 0 0 0 0.018 0 0 0 0 -7.45058e-06 47.9332 -2.38419e-05 50.278 -6.83019e-06 -2.66587 -28.9008 0 0 28.5353 28.6768 -4.09783 -28.5099 1.78814e-05 -4.76837e-05 -4.11965e-06 1.02453e-05 26.3395 -24.9204 -2.38419e-05 -4.76837e-05 6.9031 0.00668517 -4.47308 -0.0062 0.0497 0.0339 1.61149e-43 0 0 0 0.0215 0 0 -1.61149e-43 0 0 0.022 0 0 -1.61149e-43 0 0 0.017 0 0 0 0 0.0068 0.0873 0.0207 1.61149e-43 0 0 0 0.0267 0 3.20897e-43 0 0 0 0.0213 0 4.00771e-43 0 0 0 0.018 0 0 0 0 0.0067 0.0922 0.0055 1.61149e-43 0 0 0 0.0266 0 3.20897e-43 0 0 0 0.0228 0 4.00771e-43 0 0 0 0.015 0 0 0 0 0.0067 0.0925 -0.0113 1.61149e-43 0 0 0 0.0247 0 3.20897e-43 0 0 0 0.0221 0 4.00771e-43 0 0 0 0.018 0 0 0 0 0.0066 0.0935 -0.0272 1.61149e-43 0 0 0 0.0163 0 3.20897e-43 0 0 0 0.0171 0 4.00771e-43 0 0 0 0.018 0 0 0 0 -7.45058e-06 47.9332 -2.38419e-05 -178.168 81.4733 178.188 2.23517e-06 14.3934 1.78814e-05 9.60495e-06 -1.10991e-05 -3.46846e-07 
1.02272 45.8828 -267.435 -0.0567511 46.8265 -3.85255 8.11919 -5.49039 5.82068 7.44025 -36.2527 5.4828 -1.86265e-07 -47.2942 2.38419e-05 -5.01714 -4.82026 -0.422665 -1.86265e-06 -39.0449 0 6.22229 -16.0912 5.19208 -8.05462 -5.60747 6.28076 -3.92455 -35.9195 -1.22676 2.98023e-06 -48.482 -2.38419e-05 8.08069 -9.05594 1.28018 0 -38.2806 4.76837e-05 -1.0593 -3.35351 -0.663019 1.49012e-06 4.91903 -4.9191 0.516126 -45.344 0.359476 -7.45058e-06 47.9332 -2.38419e-05 -50.2862 1.15259e-05 2.73747 28.1453 -1.19209e-05 2.38419e-05 -25.4734 21.6511 -0.701138 27.5898 5.96046e-06 -9.53674e-05 -1.51587e-06 5.12264e-06 -23.2527 25.8587 0 4.76837e-05 -4.13431 0.0105253 -6.45672 0.0062 0.0497 0.0339 0 0 0 0 0.0215 0 0 0 0 0 0.022 0 0 0 0 0 0.017 0 0 0 0 -0.0068 0.0873 0.0207 0 0 0 0 0.0267 0 0 0 0 0 0.0213 0 0 0 0 0 0.018 0 0 0 0 -0.0067 0.0922 0.0055 0 0 0 0 0.0266 0 0 0 0 0 0.0228 0 0 0 0 0 0.015 0 0 0 0 -0.0067 0.0925 -0.0113 0 0 0 0 0.0247 0 0 0 0 0 0.0221 0 0 0 0 0 0.018 0 0 0 0 -0.0066 0.0935 -0.0272 0 0 0 0 0.0163 0 0 0 0 0 0.0171 0 0 0 0 0 0.018 0 0 0 0 -7.45058e-06 47.9332 -2.38419e-05 50.278 -6.83019e-06 -2.66587 -28.9008 0 0 28.5353 28.6768 -4.09783 -28.5099 1.78814e-05 -4.76837e-05 -4.11965e-06 1.02453e-05 26.3395 -24.9204 -2.38419e-05 -4.76837e-05 6.9031 0.00668517 -4.47308 -0.0062 0.0497 0.0339 1.61149e-43 0 0 0 0.0215 0 0 -1.61149e-43 0 0 0.022 0 0 -1.61149e-43 0 0 0.017 0 0 0 0 0.0068 0.0873 0.0207 1.61149e-43 0 0 0 0.0267 0 3.20897e-43 0 0 0 0.0213 0 4.00771e-43 0 0 0 0.018 0 0 0 0 0.0067 0.0922 0.0055 1.61149e-43 0 0 0 0.0266 0 3.20897e-43 0 0 0 0.0228 0 4.00771e-43 0 0 0 0.015 0 0 0 0 0.0067 0.0925 -0.0113 1.61149e-43 0 0 0 0.0247 0 3.20897e-43 0 0 0 0.0221 0 4.00771e-43 0 0 0 0.018 0 0 0 0 0.0066 0.0935 -0.0272 1.61149e-43 0 0 0 0.0163 0 3.20897e-43 0 0 0 0.0171 0 4.00771e-43 0 0 0 0.018 0 0 0 0 -7.45058e-06 47.9332 -2.38419e-05 -178.168 81.4733 178.188 2.23517e-06 14.3934 1.78814e-05 9.60495e-06 -1.10991e-05 -3.46846e-07 
0.615922 45.7571 -266.957 0.408437 44.6115 -3.8268 8.07884 -5.61759 5.68771 6.75047 -33.797 4.81972 -1.49012e-06 -47.4623 0 -4.99815 -4.66374 -0.407415 4.65661e-07 -38.9441 -2.38419e-05 6.03106 -16.835 5.09354 -8.021 -5.71078 6.10628 -4.0756 -33.2194 -1.16931 -1.49012e-06 -48.5247 2.38419e-05 7.7711 -9.23502 1.25465 -4.47035e-06 -38.3569 -9.53674e-05 -1.32045 -3.60652 -0.834779 4.47035e-06 4.92885 -4.92883 0.724351 -43.7171 0.525073 -5.96046e-06 47.9332 4.76837e-05 -50.4053 1.02453e-05 2.82738 28.1009 -5.96046e-06 2.38419e-05 -26.059 22.5758 -0.761207 27.4619 -2.38419e-05 0 1.86309e-06 0 -23.5786 26.048 1.19209e-05 -9.53674e-05 -4.5262 0.0143343 -5.32475 0.0062 0.0497 0.0339 0 0 0 0 0.0215 0 0 0 0 0 0.022 0 0 0 0 0 0.017 0 0 0 0 -0.0068 0.0873 0.0207 0 0 0 0 0.0267 0 0 0 0 0 0.0213 0 0 0 0 0 0.018 0 0 0 0 -0.0067 0.0922 0.0055 0 0 0 0 0.0266 0 0 0 0 0 0.0228 0 0 0 0 0 0.015 0 0 0 0 -0.0067 0.0925 -0.0113 0 0 0 0 0.0247 0 0 0 0 0 0.0221 0 0 0 0 0 0.018 0 0 0 0 -0.0066 0.0935 -0.0272 0 0 0 0 0.0163 0 0 0 0 0 0.0171 0 0 0 0 0 0.018 0 0 0 0 -5.96046e-06 47.9332 4.76837e-05 50.1465 -8.11085e-06 -2.77065 -28.6758 -1.19209e-05 2.38419e-05 28.1132 28.15 -3.25974 -28.5271 2.38419e-05 9.53674e-05 5.82467e-07 1.70755e-06 26.3866 -25.0154 -5.96046e-06 0 7.11733 0.00740728 -4.07776 -0.0062 0.0497 0.0339 1.61149e-43 0 0 0 0.0215 0 0 -1.61149e-43 0 0 0.022 0 0 -1.61149e-43 0 0 0.017 0 0 0 0 0.0068 0.0873 0.0207 1.61149e-43 0 0 0 0.0267 0 3.20897e-43 0 0 0 0.0213 0 4.00771e-43 0 0 0 0.018 0 0 0 0 0.0067 0.0922 0.0055 1.61149e-43 0 0 0 0.0266 0 3.20897e-43 0 0 0 0.0228 0 4.00771e-43 0 0 0 0.015 0 0 0 0 0.0067 0.0925 -0.0113 1.61149e-43 0 0 0 0.0247 0 3.20897e-43 0 0 0 0.0221 0 4.00771e-43 0 0 0 0.018 0 0 0 0 0.0066 0.0935 -0.0272 1.61149e-43 0 0 0 0.0163 0 3.20897e-43 0 0 0 0.0171 0 4.00771e-43 0 0 0 0.018 0 0 0 0 -5.96046e-06 47.9332 4.76837e-05 -176.574 82.3668 176.604 -2.23517e-06 14.3365 2.38419e-05 1.06722e-05 -9.39151e-06 -1.06722e-07 
